<svg id="Capa_1" data-name="Capa 1" xmlns="http://www.w3.org/2000/svg" viewBox="0 0 457.48 458.98">
    <defs>
        <style>.cls-1 {
            fill: #f2d81d;
        }

        .cls-2 {
            fill: #385e8c;
        }</style>
    </defs>
    <title>moneda</title>
    <circle class="cls-1" cx="228.74" cy="229.49" r="208.56"/>
    <g transform="translate(0.000000,500.000000) scale(0.100000,-0.100000)"
       fill="#125E8F" stroke="none">
        <path d="M940 3610 c-11 -11 -20 -30 -20 -41 0 -33 157 -277 188 -293 20 -10
109 -15 342 -19 346 -7 386 -13 452 -67 54 -44 81 -108 81 -189 -1 -85 -24
-141 -79 -189 -65 -58 -122 -72 -311 -79 l-163 -6 0 169 c0 137 -3 174 -16
192 -30 43 -65 52 -194 52 l-120 0 0 -625 0 -625 140 0 c136 0 142 1 165 25
25 24 25 24 25 235 l0 210 68 0 c139 0 331 -20 384 -40 109 -41 174 -126 185
-244 9 -98 -16 -168 -82 -233 -85 -83 -99 -85 -505 -91 -264 -3 -351 -7 -371
-18 -33 -17 -189 -264 -189 -299 0 -14 10 -35 22 -47 l21 -21 481 6 c519 6
596 13 719 62 205 83 353 297 373 543 19 230 -95 440 -294 540 -42 21 -88 41
-102 45 -23 6 -20 9 35 45 160 104 249 264 249 452 1 124 -26 211 -93 307
-113 160 -249 231 -486 253 -60 5 -284 10 -497 10 -375 0 -389 -1 -408 -20z"/>
        <path d="M2613 3620 c-24 -10 -43 -39 -43 -66 0 -16 117 -211 149 -248 9 -10
33 -27 53 -37 33 -17 62 -19 270 -19 282 -1 467 -13 530 -35 62 -22 139 -92
169 -152 18 -38 23 -65 23 -133 1 -102 -20 -156 -84 -220 -88 -88 -151 -99
-588 -107 -327 -6 -332 -6 -338 -27 -2 -12 -3 -278 -2 -593 3 -534 4 -574 21
-590 15 -16 41 -18 202 -21 l185 -3 25 25 25 25 0 401 0 400 48 0 c124 1 398
21 463 35 239 49 428 228 490 461 28 106 30 316 5 419 -59 232 -238 414 -455
461 -127 27 -1090 47 -1148 24z"/>
    </g>

</svg>
