<svg id="Capa_1" data-name="Capa 1" xmlns="http://www.w3.org/2000/svg" viewBox="0 0 67.5 60.96"><defs><style>.cls-1{fill:#385e8c;}</style></defs><path class="cls-1" d="M93,71c-1.8,1.8-1.9,2.3-.7,5.3,18.4,44.5,18.9,45.6,21.8,46.6,1.9.7,2.9,1.7,2.9,3,0,2.6,3.4,4.5,6.6,3.7,1.7-.5,2.6-1.6,3.1-3.6.8-4.3,4.8-4.3,5.6,0a4.94,4.94,0,0,0,9.7-.1,3.23,3.23,0,0,1,3.2-2.7,6.73,6.73,0,0,0,3.6-1.5C150.1,119.9,159,97.6,159,96s-5.2-10-6.1-10c-.4,0-1.4,2-2.3,4.5L148.8,95H135.9c-14.2,0-14.4.1-11.4,6l1.6,3h9.4c5.2,0,9.5.2,9.5.4s-.7,2-1.5,4c-1.9,4.5-4.5,5.6-13.5,5.6-11.2,0-10.7.5-19-19.7C100.9,69.8,100.5,69,97.5,69A7.38,7.38,0,0,0,93,71Z" transform="translate(-91.5 -69)"/><path class="cls-1" d="M110.6,80a30.53,30.53,0,0,0-2.6,4.5c0,.3,9.9.5,22,.5s22-.2,22-.5a30.53,30.53,0,0,0-2.6-4.5l-2.7-4H113.3Z" transform="translate(-91.5 -69)"/></svg>