<svg id="Capa_1" data-name="Capa 1" xmlns="http://www.w3.org/2000/svg" xmlns:xlink="http://www.w3.org/1999/xlink" viewBox="0 0 1304.9 69"><defs><style>.cls-1{fill:none;}.cls-2{clip-path:url(#clip-path);}.cls-3{fill:#f2d81d;}.cls-4{fill:#385e8c;}</style><clipPath id="clip-path" transform="translate(326.23 0)"><rect class="cls-1" width="652.45" height="69"/></clipPath></defs><g id="Capa_2-2" data-name="Capa 2-2"><g class="cls-2"><path class="cls-3" d="M978.68,69H-326.23a9.7,9.7,0,0,1,3.2-6.7,30.92,30.92,0,0,1,3.9-3.3,50,50,0,0,1,5.5-3.3,64.68,64.68,0,0,1,7-3.3c2.7-1.2,5.6-2.2,8.6-3.2s6.4-2.2,10-3.2,7.5-2.1,11.6-3.2,8.4-2.1,13-3.1,9.4-2,14.4-3,10.3-2,15.8-2.9,11.2-1.9,17.1-2.9,12.1-1.9,18.4-2.8,12.9-1.8,19.7-2.7,13.8-1.7,20.9-2.6,14.6-1.7,22.1-2.5,15.2-1.6,23.2-2.3,16-1.5,24.2-2.2,16.7-1.4,25.3-2.1,17.3-1.3,26.2-1.9l27-1.8C0,9.4,9.27,8.9,18.67,8.3s19-1,28.6-1.5,19.4-1,29.3-1.4,19.9-.9,29.9-1.4,20.2-.8,30.4-1.1l30.8-.9c10.3-.3,20.8-.5,31.2-.8s21-.5,31.5-.6,21.2-.3,31.8-.3,21.2-.2,31.9-.2,21.3-.1,32-.1,21.3,0,32,.1,21.3.1,31.91.2,21.2.2,31.79.4l31.6.6c10.5.2,20.9.5,31.2.8l30.8.9c10.2.3,20.3.7,30.4,1.1l29.91,1.2c9.9.4,19.59.9,29.3,1.4l28.59,1.5c9.4.5,18.7,1.1,27.8,1.7s18.2,1.2,27,1.8,17.6,1.3,26.2,2,17,1.4,25.3,2.1,16.31,1.5,24.2,2.2,15.7,1.5,23.2,2.3,14.9,1.6,22.1,2.5,14.1,1.7,20.9,2.6,13.4,1.8,19.7,2.7,12.5,1.8,18.4,2.8,11.6,1.8,17.1,2.8,10.8,1.9,15.8,2.9,9.8,2,14.4,3,8.9,2.1,13,3.1,8,2.1,11.6,3.2,6.9,2.2,10,3.2,6,2.2,8.6,3.2a56.82,56.82,0,0,1,7,3.3,61.55,61.55,0,0,1,5.5,3.3,25,25,0,0,1,3.9,3.4,11.65,11.65,0,0,1,2.4,3.4A7.5,7.5,0,0,1,978.68,69Z" transform="translate(326.23 0)"/></g><path class="cls-4" d="M312.84,7.88c-.73.73-.77.94-.29,2.15C320,28.1,320.23,28.55,321.4,29c.77.29,1.18.69,1.18,1.22,0,1.06,1.38,1.83,2.68,1.5a1.77,1.77,0,0,0,1.26-1.46c.32-1.74,2-1.74,2.27,0a2,2,0,0,0,3.94,0,1.31,1.31,0,0,1,1.3-1.09,2.73,2.73,0,0,0,1.46-.61A90.83,90.83,0,0,0,339.63,18c0-.61-2.11-4.06-2.47-4.06a4.44,4.44,0,0,0-.94,1.83l-.73,1.82h-5.23c-5.77,0-5.85,0-4.63,2.44l.65,1.22h3.81a24.81,24.81,0,0,1,3.86.16c0,.08-.29.81-.61,1.62-.77,1.83-1.83,2.28-5.48,2.28-4.55,0-4.35.2-7.72-8-4.1-9.95-4.26-10.27-5.48-10.27A3,3,0,0,0,312.84,7.88Z" transform="translate(326.23 0)"/><path class="cls-4" d="M320,11.54a12,12,0,0,0-1.05,1.82c0,.12,4,.21,8.93.21s8.93-.08,8.93-.21a12.49,12.49,0,0,0-1.06-1.82l-1.09-1.63H321.08Z" transform="translate(326.23 0)"/></g></svg>