<svg id="Capa_1" data-name="Capa 1" xmlns="http://www.w3.org/2000/svg" viewBox="0 0 652.68 69.16"><defs><style>.cls-1{fill:none;}.cls-2{fill:#f2d81d;}.cls-3{fill:#385e8c;}</style></defs><g id="Capa_2-2" data-name="Capa 2-2"><rect class="cls-1" x="0.23" width="652.45" height="69"/><path class="cls-2" d="M651.77,69.18H-.23c4.72-28.56,111-39.59,131.86-42.88,69.76-8.2,140-11.24,210.05-10.55C383.17,15.47,640.66,22.74,651.77,69.18Z" transform="translate(0.23 -0.02)"/><path class="cls-3" d="M312.41,23.56c-.73.73-.76.94-.29,2.15,7.45,18.07,7.68,18.52,8.85,19,.77.29,1.18.69,1.18,1.22,0,1.86,3.74,2.24,3.94,0,.32-1.74,2-1.74,2.27,0a2,2,0,0,0,2.32,1.62h0c2.77-1.08.15-2.08,4.39-3.32,1.6-4.57,6.49-10.72,1.66-14.62-.8.9-1.15,2.57-1.67,3.65-2.95.49-13.11-1.57-9.85,2.44l.64,1.22a67.72,67.72,0,0,1,7.67.16c-.82,2.65-1.54,4.12-6.09,3.9-4.55,0-4.35.2-7.72-8C314.77,22,316.15,21.73,312.41,23.56Z" transform="translate(0.23 -0.02)"/><path class="cls-3" d="M319.54,27.18c-2.86,3.51,1.78,1.49,7.94,2.07,8.13-.47,10.82,1.61,6.72-3.7H320.62Z" transform="translate(0.23 -0.02)"/></g></svg>