<?xml version="1.0" encoding="utf-8"?>
<!-- Generator: Adobe Illustrator 24.3.0, SVG Export Plug-In . SVG Version: 6.00 Build 0)  -->
<svg version="1.1" id="Capa_1" xmlns="http://www.w3.org/2000/svg" xmlns:xlink="http://www.w3.org/1999/xlink" x="0px" y="0px"
	 viewBox="0 0 1304.9 69" style="enable-background:new 0 0 1304.9 69;" xml:space="preserve">
<style type="text/css">
	.st0{fill:#F2D81D;}
	.st1{fill:#385E8C;}
</style>
<g id="Capa_2-2">
	<path class="st0" d="M1304.9,69H0c0.1-2.6,1.3-4.9,3.2-6.7C4.4,61.1,5.7,60,7.1,59c1.7-1.2,3.6-2.3,5.5-3.3c2.2-1.2,4.5-2.3,7-3.3
		c2.7-1.2,5.6-2.2,8.6-3.2c3.1-1.1,6.4-2.2,10-3.2c3.6-1.1,7.5-2.1,11.6-3.2s8.4-2.1,13-3.1s9.4-2,14.4-3s10.3-2,15.8-2.9
		s11.2-1.9,17.1-2.9s12.1-1.9,18.4-2.8c6.3-0.9,12.9-1.8,19.7-2.7s13.8-1.7,20.9-2.6s14.6-1.7,22.1-2.5s15.2-1.6,23.2-2.3
		s16-1.5,24.2-2.2s16.7-1.4,25.3-2.1s17.3-1.3,26.2-1.9s17.9-1.2,27-1.8s18.4-1.1,27.8-1.7s19-1,28.6-1.5s19.4-1,29.3-1.4
		s19.9-0.9,29.9-1.4s20.2-0.8,30.4-1.1s20.5-0.6,30.8-0.9s20.8-0.5,31.2-0.8s21-0.5,31.5-0.6s21.2-0.3,31.8-0.3s21.2-0.2,31.9-0.2
		s21.3-0.1,32-0.1s21.3,0,32,0.1s21.3,0.1,31.9,0.2s21.2,0.2,31.8,0.4s21.1,0.4,31.6,0.6s20.9,0.5,31.2,0.8s20.6,0.6,30.8,0.9
		s20.3,0.7,30.4,1.1s20,0.8,29.9,1.2s19.6,0.9,29.3,1.4s19.2,1,28.6,1.5s18.7,1.1,27.8,1.7s18.2,1.2,27,1.8s17.6,1.3,26.2,2
		s17,1.4,25.3,2.1s16.3,1.5,24.2,2.2s15.7,1.5,23.2,2.3s14.9,1.6,22.1,2.5s14.1,1.7,20.9,2.6s13.4,1.8,19.7,2.7s12.5,1.8,18.4,2.8
		s11.6,1.8,17.1,2.8s10.8,1.9,15.8,2.9s9.8,2,14.4,3s8.9,2.1,13,3.1s8,2.1,11.6,3.2s6.9,2.2,10,3.2s6,2.2,8.6,3.2s4.8,2.1,7,3.3
		c1.9,1,3.7,2.1,5.5,3.3c1.4,1,2.7,2.1,3.9,3.4c1,1,1.8,2.1,2.4,3.4C1304.5,66.7,1304.8,67.8,1304.9,69z"/>
	<g transform="translate(0.000000,250.000000) scale(0.100000,-0.100000)">
		<path class="st1" d="M6259.7,2436.8c-14.6-14.6-15.4-18.7-5.7-43c149.4-361.3,153.5-370.3,177-378.4c15.4-5.7,23.5-13.8,23.5-24.4
			c0-21.1,27.6-36.5,53.6-30c13.8,4.1,21.1,13,25.2,29.2c6.5,34.9,39,34.9,45.5,0c8.9-43,69-43,78.8,0.8c3.2,13.8,11.4,20.3,26,21.9
			c12.2,1.6,25.2,7.3,29.2,12.2c10.6,14.6,82.8,195.7,82.8,208.7c0,12.2-42.2,81.2-49.5,81.2c-3.2,0-11.4-16.2-18.7-36.5l-14.6-36.5
			h-104.7c-115.3,0-116.9-0.8-92.6-48.7l13-24.4h76.3c42.2,0,77.1-1.6,77.1-3.2c0-1.6-5.7-16.2-12.2-32.5
			c-15.4-36.5-36.5-45.5-109.6-45.5c-90.9,0-86.9-4.1-154.3,160c-82,198.9-85.3,205.4-109.6,205.4
			C6284.9,2453,6268.7,2445.7,6259.7,2436.8z"/>
		<path class="st1" d="M6402.6,2363.7c-11.4-17.9-21.1-34.1-21.1-36.5c0-2.4,80.4-4.1,178.6-4.1c98.2,0,178.6,1.6,178.6,4.1
			c0,2.4-9.7,18.7-21.1,36.5l-21.9,32.5h-135.6h-135.6L6402.6,2363.7z"/>
	</g>
</g>
</svg>
