<svg id="Capa_1" data-name="Capa 1" xmlns="http://www.w3.org/2000/svg" xmlns:xlink="http://www.w3.org/1999/xlink" viewBox="0 0 1304.91 69"><defs><style>.cls-1{fill:none;}.cls-2{clip-path:url(#clip-path);}.cls-3{clip-path:url(#clip-path-2);}.cls-4{fill:#f2d81d;}.cls-5{fill:#385e8c;}</style><clipPath id="clip-path" transform="translate(326.23 -20.5)"><rect class="cls-1" width="652.45" height="69"/></clipPath><clipPath id="clip-path-2" transform="translate(326.23 -20.5)"><rect class="cls-1" y="20.5" width="652.45" height="69"/></clipPath></defs><g class="cls-2"><g id="Capa_2-2" data-name="Capa 2-2"><g class="cls-3"><path class="cls-4" d="M978.68,89.5H-326.23a9.73,9.73,0,0,1,3.2-6.7,30.66,30.66,0,0,1,3.9-3.3,49.41,49.41,0,0,1,5.5-3.3,64.73,64.73,0,0,1,7-3.3c2.7-1.2,5.6-2.2,8.6-3.2s6.4-2.2,10-3.2,7.5-2.1,11.6-3.2,8.4-2.1,13-3.1,9.4-2,14.4-3,10.3-2,15.8-2.9,11.2-1.9,17.1-2.9,12.1-1.9,18.4-2.8,12.9-1.8,19.7-2.7,13.8-1.7,20.9-2.6,14.6-1.7,22.1-2.5,15.2-1.6,23.2-2.3,16-1.5,24.2-2.2,16.7-1.4,25.3-2.1,17.3-1.3,26.2-1.9l27-1.8c9.13-.6,18.4-1.1,27.8-1.7s19-1,28.6-1.5,19.4-1,29.3-1.4,19.9-.9,29.9-1.4,20.2-.8,30.4-1.1l30.8-.9c10.3-.3,20.8-.5,31.2-.8s21-.5,31.5-.6,21.2-.3,31.8-.3,21.2-.2,31.9-.2,21.3-.1,32-.1,21.3,0,32,.1,21.3.1,31.91.2,21.2.2,31.79.4l31.6.6c10.5.2,20.9.5,31.2.8l30.8.9c10.2.3,20.3.7,30.4,1.1l29.91,1.2c9.9.4,19.59.9,29.3,1.4l28.59,1.5c9.4.5,18.7,1.1,27.8,1.7s18.2,1.2,27,1.8,17.6,1.3,26.2,2,17,1.4,25.3,2.1,16.31,1.5,24.2,2.2,15.7,1.5,23.2,2.3,14.9,1.6,22.1,2.5,14.1,1.7,20.9,2.6,13.4,1.8,19.7,2.7,12.5,1.8,18.4,2.8,11.6,1.8,17.1,2.8,10.8,1.9,15.8,2.9,9.8,2,14.4,3,8.9,2.1,13,3.1,8,2.1,11.6,3.2,6.9,2.2,10,3.2,6,2.2,8.6,3.2a56.55,56.55,0,0,1,7,3.3,61.08,61.08,0,0,1,5.5,3.3,25.23,25.23,0,0,1,3.9,3.4,11.59,11.59,0,0,1,2.4,3.4A7.57,7.57,0,0,1,978.68,89.5Z" transform="translate(326.23 -20.5)"/></g><path class="cls-5" d="M312.84,28.38c-.73.73-.77.94-.29,2.15,7.45,18.07,7.68,18.52,8.85,19,.77.29,1.18.69,1.18,1.22,0,1.06,1.38,1.83,2.68,1.5a1.78,1.78,0,0,0,1.26-1.46c.32-1.74,2-1.74,2.27,0a2,2,0,0,0,3.94,0,1.32,1.32,0,0,1,1.3-1.09,2.72,2.72,0,0,0,1.46-.61,91,91,0,0,0,4.14-10.56c0-.61-2.11-4.06-2.47-4.06a4.5,4.5,0,0,0-.94,1.83l-.73,1.82h-5.23c-5.77,0-5.85,0-4.63,2.44l.65,1.22h3.81a24.88,24.88,0,0,1,3.86.16c0,.08-.29.81-.61,1.62-.77,1.83-1.83,2.28-5.48,2.28-4.55,0-4.35.2-7.72-8-4.1-10-4.26-10.27-5.48-10.27A3,3,0,0,0,312.84,28.38Z" transform="translate(326.23 -20.5)"/><path class="cls-5" d="M320,32A12.12,12.12,0,0,0,319,33.86c0,.12,4,.21,8.93.21s8.93-.08,8.93-.21A12.7,12.7,0,0,0,335.75,32l-1.09-1.63H321.08Z" transform="translate(326.23 -20.5)"/></g></g></svg>